<?xml version="1.0" encoding="UTF-8"?>
<svg width="76px" height="76px" viewBox="0 0 76 76" version="1.1" xmlns="http://www.w3.org/2000/svg" xmlns:xlink="http://www.w3.org/1999/xlink">
    <!-- Generator: Sketch 43.1 (39012) - http://www.bohemiancoding.com/sketch -->
    <title>icons</title>
    <desc>Created with Sketch.</desc>
    <defs></defs>
    <g id="Page-1" stroke="none" stroke-width="1" fill="none" fill-rule="evenodd">
        <g id="flu" fill-rule="nonzero" fill="#F2A87C">
            <path d="M30.1708125,22.6143216 C24.9903438,22.6143216 20.7759063,26.8454353 20.7759063,32.0460706 C20.7759063,37.2467059 24.9903438,41.4778196 30.1708125,41.4778196 C35.3512813,41.4778196 39.5657188,37.2467059 39.5657188,32.0460706 C39.5657188,26.8454353 35.3512813,22.6143216 30.1708125,22.6143216 Z M30.1708125,38.3338039 C26.7172656,38.3338039 23.9074922,35.5130118 23.9074922,32.0459216 C23.9074922,28.5788314 26.7172656,25.7580392 30.1708125,25.7580392 C33.6243594,25.7580392 36.4341328,28.5788314 36.4341328,32.0459216 C36.4341328,35.5131608 33.6243594,38.3338039 30.1708125,38.3338039 Z" id="Shape"></path>
            <path d="M44.2631719,43.0496784 C40.809625,43.0496784 37.9998516,45.8704706 37.9998516,49.3375608 C37.9998516,52.804651 40.809625,55.6254431 44.2631719,55.6254431 C47.7167187,55.6254431 50.5264922,52.804651 50.5264922,49.3375608 C50.5263437,45.8704706 47.7167187,43.0496784 44.2631719,43.0496784 Z M44.2631719,52.4814275 C42.5363984,52.4814275 41.1315859,51.0711059 41.1315859,49.3375608 C41.1315859,47.6040157 42.5363984,46.1936941 44.2631719,46.1936941 C45.9899453,46.1936941 47.3947578,47.6041647 47.3947578,49.3375608 C47.3947578,51.0711059 45.9899453,52.4814275 44.2631719,52.4814275 Z" id="Shape"></path>
            <path d="M25.0146875,19.9313725 C24.9441797,19.8602902 24.8619453,19.7935294 24.776,19.7348157 C24.6936172,19.6795294 24.5998047,19.6285647 24.5056953,19.5893725 C24.4118828,19.5498824 24.3139141,19.5226118 24.2120859,19.5029412 C24.0125859,19.4595765 23.8049219,19.4595765 23.6015625,19.5029412 C23.4997344,19.5224627 23.4017656,19.5497333 23.3079531,19.5893725 C23.2139922,19.6285647 23.1238906,19.6795294 23.0376484,19.7348157 C22.9515547,19.7935294 22.8731797,19.8602902 22.7989609,19.9313725 C22.5093594,20.2218118 22.3410313,20.626698 22.3410313,21.0435059 C22.3410313,21.1455843 22.3527578,21.2476627 22.3723516,21.3497412 C22.3917969,21.4479451 22.4231172,21.5504706 22.4623047,21.644502 C22.5014922,21.7388314 22.5483984,21.8294353 22.6071797,21.9158667 C22.6618047,22.002149 22.7283047,22.0808314 22.7988125,22.1556392 C23.0924219,22.4462275 23.4957266,22.6153647 23.9066016,22.6153647 C24.3174766,22.6153647 24.7209297,22.4460784 25.0143906,22.1556392 C25.08475,22.0808314 25.1513984,22.002149 25.2101797,21.9158667 C25.2649531,21.8295843 25.3118594,21.7389804 25.3510469,21.644502 C25.3902344,21.5504706 25.4215547,21.4479451 25.4411484,21.3497412 C25.4608906,21.2476627 25.4724688,21.1455843 25.4724688,21.0435059 C25.4726172,20.626698 25.3042891,20.2218118 25.0146875,19.9313725 Z" id="Shape"></path>
            <path d="M37.5411797,16.7873569 C37.2514297,16.4925961 36.8482734,16.3276314 36.4333906,16.3276314 C36.0225156,16.3276314 35.6190625,16.4925961 35.3256016,16.7873569 C35.036,17.0777961 34.8676719,17.4826824 34.8676719,17.8994902 C34.8676719,18.0015686 34.8793984,18.1036471 34.8989922,18.2057255 C34.9184375,18.3039294 34.9497578,18.4022824 34.9889453,18.5004863 C35.0281328,18.5948157 35.0750391,18.6854196 35.1338203,18.771851 C35.1884453,18.8581333 35.2549453,18.9368157 35.3254531,19.007451 C35.6190625,19.3022118 36.0223672,19.471498 36.4332422,19.471498 C36.5349219,19.471498 36.6406094,19.4595765 36.7384297,19.4400549 C36.8402578,19.4205333 36.9380781,19.3889412 37.0320391,19.349451 C37.126,19.3102588 37.2161016,19.2631686 37.3020469,19.2040078 C37.3882891,19.1491686 37.4705234,19.0824078 37.5410313,19.007451 C37.6113906,18.9368157 37.6780391,18.8581333 37.7368203,18.771851 C37.7914453,18.6855686 37.8425078,18.5949647 37.8816953,18.5004863 C37.9207344,18.4022824 37.9481953,18.3039294 37.9676406,18.2057255 C37.9912422,18.1036471 37.9989609,18.0015686 37.9989609,17.8994902 C37.9991094,17.4867059 37.8347891,17.0779451 37.5411797,16.7873569 Z" id="Shape"></path>
            <path d="M48.5019531,19.9313725 C48.4314453,19.8602902 48.3492109,19.7935294 48.2629687,19.7348157 C48.1807344,19.6795294 48.0869219,19.6285647 47.9929609,19.5893725 C47.8991484,19.5498824 47.8011797,19.5226118 47.6993516,19.5029412 C47.1905078,19.3966902 46.6503437,19.5655294 46.2862266,19.9312235 C45.996625,20.2216627 45.8282969,20.626549 45.8282969,21.0433569 C45.8282969,21.1454353 45.8400234,21.2475137 45.8596172,21.3495922 C45.8790625,21.4477961 45.9103828,21.546149 45.9495703,21.6443529 C45.9887578,21.7386824 46.0356641,21.8292863 46.0944453,21.9157176 C46.1490703,22.002 46.2155703,22.0806824 46.2860781,22.1554902 C46.5796875,22.4460784 46.9829922,22.6152157 47.3938672,22.6152157 C47.4955469,22.6152157 47.6012344,22.6032941 47.6990547,22.5837725 C47.8008828,22.564251 47.8987031,22.5326588 47.9926641,22.4931686 C48.086625,22.4539765 48.1805859,22.4068863 48.2626719,22.3477255 C48.3489141,22.2928863 48.4311484,22.2261255 48.5016562,22.1554902 C48.5720156,22.0806824 48.6386641,22.002 48.6974453,21.9157176 C48.7520703,21.8294353 48.8031328,21.7388314 48.8423203,21.6443529 C48.8813594,21.5503216 48.9088203,21.4477961 48.9282656,21.3495922 C48.9518672,21.2475137 48.9595859,21.1454353 48.9595859,21.0433569 C48.9598828,20.626698 48.7914062,20.2218118 48.5019531,19.9313725 Z" id="Shape"></path>
            <path d="M45.7968281,28.5967137 C45.7773828,28.4946353 45.7497734,28.3964314 45.7108828,28.3019529 C45.6716953,28.2074745 45.6206328,28.1131451 45.5660078,28.0305882 C45.507375,27.9441569 45.4405781,27.861749 45.3702188,27.7911137 C45.2997109,27.7200314 45.2174766,27.6532706 45.1312344,27.5945569 C45.049,27.5392706 44.9551875,27.4883059 44.8612266,27.4491137 C44.7674141,27.4096235 44.6694453,27.3823529 44.5676172,27.3626824 C44.3681172,27.3193176 44.1604531,27.3193176 43.9569453,27.3626824 C43.859125,27.3822039 43.7574453,27.4094745 43.6633359,27.4491137 C43.5695234,27.4883059 43.4794219,27.5392706 43.3933281,27.5945569 C43.3072344,27.6532706 43.2288594,27.7200314 43.1546406,27.7911137 C43.0841328,27.861749 43.0176328,27.9441569 42.9630078,28.0305882 C42.9040781,28.1131451 42.8573203,28.2074745 42.8181328,28.3019529 C42.7789453,28.3962824 42.747625,28.4946353 42.7281797,28.5967137 C42.7084375,28.6949176 42.6968594,28.8008706 42.6968594,28.9033961 C42.6968594,29.0054745 42.7085859,29.1075529 42.7281797,29.2096314 C42.747625,29.3078353 42.7789453,29.4103608 42.8181328,29.5043922 C42.8573203,29.5987216 42.9042266,29.6893255 42.9630078,29.7757569 C43.0176328,29.8620392 43.0841328,29.9407216 43.1546406,30.0113569 C43.2290078,30.0861647 43.3073828,30.1529255 43.3933281,30.2079137 C43.4795703,30.2670745 43.5695234,30.3141647 43.6633359,30.3533569 C43.7572969,30.3928471 43.859125,30.4244392 43.9569453,30.4439608 C44.0587734,30.4634824 44.1604531,30.4754039 44.2624297,30.4754039 C44.3641094,30.4754039 44.4697969,30.4634824 44.5676172,30.4439608 C44.6694453,30.4244392 44.7672656,30.3928471 44.8612266,30.3533569 C44.9551875,30.3141647 45.0491484,30.2670745 45.1312344,30.2079137 C45.2174766,30.1530745 45.2997109,30.0863137 45.3702188,30.0113569 C45.4405781,29.9407216 45.5072266,29.8620392 45.5660078,29.7757569 C45.6206328,29.6894745 45.6716953,29.5988706 45.7108828,29.5043922 C45.7499219,29.4103608 45.7773828,29.3078353 45.7968281,29.2096314 C45.8204297,29.1075529 45.8281484,29.0054745 45.8281484,28.9033961 C45.8281484,28.8008706 45.8204297,28.6949176 45.7968281,28.5967137 Z" id="Shape"></path>
            <path d="M56.3309922,26.2191059 C56.2604844,26.144298 56.17825,26.0812627 56.0920078,26.022549 C56.0097734,25.9672627 55.9159609,25.916298 55.822,25.8771059 C55.7281875,25.8376157 55.6302187,25.8103451 55.5283906,25.786502 C55.3288906,25.7473098 55.1212266,25.7473098 54.9177187,25.786502 C54.8160391,25.8103451 54.7182187,25.8376157 54.6241094,25.8771059 C54.5302969,25.916298 54.4401953,25.9672627 54.3541016,26.022549 C54.2680078,26.0812627 54.1896328,26.144149 54.1154141,26.2191059 C53.8258125,26.5095451 53.6574844,26.9145804 53.6574844,27.3312392 C53.6574844,27.7437255 53.8259609,28.1486118 54.1154141,28.4433725 C54.4090234,28.7339608 54.8123281,28.903098 55.2232031,28.903098 C55.3248828,28.903098 55.4305703,28.8911765 55.5283906,28.8716549 C55.6302187,28.8521333 55.7280391,28.8205412 55.822,28.781051 C55.9159609,28.7418588 56.0099219,28.6947686 56.0920078,28.6356078 C56.17825,28.5807686 56.2604844,28.5140078 56.3309922,28.4433725 C56.6205937,28.1486118 56.7889219,27.7437255 56.7889219,27.3312392 C56.7889219,26.9145804 56.6204453,26.5096941 56.3309922,26.2191059 Z" id="Shape"></path>
            <path d="M50.4942812,36.4564549 C50.4748359,36.3543765 50.4472266,36.2561725 50.4083359,36.1616941 C50.3691484,36.0672157 50.3180859,35.9728863 50.2634609,35.8903294 C50.2048281,35.803898 50.1380312,35.7214902 50.0676719,35.6508549 C49.7035547,35.2851608 49.1633906,35.1161725 48.6543984,35.2225725 C48.5527187,35.2420941 48.4548984,35.2693647 48.3607891,35.3090039 C48.2669766,35.3481961 48.176875,35.3991608 48.0907812,35.4544471 C48.0046875,35.5131608 47.9263125,35.5799216 47.8520937,35.6510039 C47.7815859,35.7216392 47.7150859,35.8040471 47.6604609,35.8904784 C47.6015312,35.9730353 47.5547734,36.0673647 47.5155859,36.1618431 C47.4763984,36.2561725 47.4450781,36.3545255 47.4256328,36.4566039 C47.4058906,36.5548078 47.3943125,36.6607608 47.3943125,36.7632863 C47.3943125,37.1757725 47.5627891,37.5806588 47.8522422,37.8712471 C48.1458516,38.1660078 48.5491562,38.3352941 48.9600312,38.3352941 C49.0617109,38.3352941 49.1635391,38.3233725 49.2652187,38.303851 C49.3670469,38.2838824 49.4648672,38.2527373 49.5588281,38.2132471 C49.6527891,38.1740549 49.7428906,38.1269647 49.8288359,38.0678039 C49.9150781,38.0129647 49.9973125,37.9462039 50.0678203,37.8712471 C50.1381797,37.8006118 50.2048281,37.7219294 50.2636094,37.6356471 C50.3182344,37.5493647 50.3692969,37.4587608 50.4084844,37.3642824 C50.4475234,37.270251 50.4749844,37.1677255 50.4944297,37.0695216 C50.5180312,36.9674431 50.52575,36.8653647 50.52575,36.7632863 C50.5256016,36.6606118 50.5178828,36.5546588 50.4942812,36.4564549 Z" id="Shape"></path>
            <path d="M59.8891875,38.0283137 C59.8697422,37.9262353 59.8421328,37.8280314 59.8032422,37.7335529 C59.7640547,37.6390745 59.7129922,37.5447451 59.6583672,37.4621882 C59.5997344,37.3757569 59.5329375,37.293349 59.4625781,37.2227137 C59.3920703,37.1516314 59.3098359,37.0848706 59.2235937,37.0261569 C59.1413594,36.9708706 59.0475469,36.9199059 58.9535859,36.8807137 C58.8597734,36.8412235 58.7618047,36.8139529 58.6599766,36.7942824 C58.4604766,36.7509176 58.2528125,36.7509176 58.0493047,36.7942824 C57.947625,36.8138039 57.8498047,36.8410745 57.7556953,36.8807137 C57.6618828,36.9199059 57.5717812,36.9708706 57.4856875,37.0261569 C57.3995937,37.0848706 57.3212187,37.1516314 57.247,37.2227137 C57.1764922,37.293349 57.1099922,37.3757569 57.0553672,37.4621882 C56.9964375,37.5447451 56.9496797,37.6390745 56.9104922,37.7335529 C56.8713047,37.8278824 56.8399844,37.9262353 56.8205391,38.0283137 C56.8007969,38.1265176 56.7892187,38.2324706 56.7892187,38.3349961 C56.7892187,38.4370745 56.8009453,38.5391529 56.8205391,38.6412314 C56.8399844,38.7394353 56.8713047,38.8419608 56.9104922,38.9359922 C56.9496797,39.0303216 56.9965859,39.1209255 57.0553672,39.2073569 C57.1099922,39.2936392 57.1764922,39.3723216 57.247,39.4471294 C57.3213672,39.5177647 57.3997422,39.5845255 57.4856875,39.6393647 C57.5719297,39.6985255 57.6618828,39.7456157 57.7556953,39.7848078 C57.8496562,39.824298 57.9514844,39.8554431 58.0493047,39.8754118 C58.1511328,39.8949333 58.2528125,39.9068549 58.3547891,39.9068549 C58.4564687,39.9068549 58.5621562,39.8949333 58.6599766,39.8754118 C58.7618047,39.8554431 58.859625,39.824298 58.9535859,39.7848078 C59.0475469,39.7456157 59.1415078,39.6985255 59.2235937,39.6393647 C59.3098359,39.5845255 59.3920703,39.5177647 59.4625781,39.4471294 C59.5329375,39.3723216 59.5995859,39.2936392 59.6583672,39.2073569 C59.7129922,39.1210745 59.7600469,39.0304706 59.7992344,38.9359922 C59.8384219,38.8419608 59.8697422,38.7394353 59.8893359,38.6412314 C59.9129375,38.5391529 59.9206562,38.4370745 59.9206562,38.3349961 C59.9205078,38.2324706 59.9126406,38.1266667 59.8891875,38.0283137 Z" id="Shape"></path>
            <path d="M58.3274766,49.0320706 C58.303875,48.9299922 58.2764141,48.8317882 58.237375,48.7373098 C58.1981875,48.6428314 58.147125,48.548502 58.0925,48.4659451 C58.0338672,48.3795137 57.9670703,48.2971059 57.8967109,48.2264706 C57.5325938,47.8607765 56.9924297,47.6917882 56.4834375,47.7940157 C56.3856172,47.8178588 56.2839375,47.8451294 56.1898281,47.8846196 C56.0960156,47.9238118 56.0059141,47.9747765 55.9198203,48.0300627 C55.8337266,48.0887765 55.7553516,48.1516627 55.6811328,48.2266196 C55.610625,48.2972549 55.544125,48.3796627 55.4895,48.4660941 C55.4305703,48.548651 55.3838125,48.6429804 55.344625,48.7374588 C55.3054375,48.8317882 55.2741172,48.9301412 55.2546719,49.0322196 C55.2349297,49.1304235 55.2233516,49.2363765 55.2233516,49.338902 C55.2233516,49.7513882 55.3918281,50.1562745 55.6812813,50.4468627 C55.7556484,50.5216706 55.8340234,50.5884314 55.9199688,50.6434196 C56.0062109,50.7025804 56.0961641,50.7496706 56.1899766,50.7888627 C56.2839375,50.8283529 56.3857656,50.859498 56.4835859,50.8794667 C56.5854141,50.8989882 56.6870938,50.9067373 56.7890703,50.9067373 C57.2039531,50.9067373 57.6071094,50.7417725 57.8968594,50.4470118 C58.1904688,50.1564235 58.3547891,49.7516863 58.3547891,49.339051 C58.3547891,49.2362275 58.3469219,49.1302745 58.3274766,49.0320706 Z" id="Shape"></path>
            <path d="M29.7121406,46.6546118 C29.6416328,46.5835294 29.5593984,46.5167686 29.4734531,46.4580549 C29.3910703,46.4027686 29.2972578,46.3518039 29.2031484,46.3126118 C29.1093359,46.2731216 29.0113672,46.245851 28.9095391,46.2261804 C28.4006953,46.1199294 27.8605312,46.2887686 27.4964141,46.6544627 C27.2068125,46.944902 27.0384844,47.3497882 27.0384844,47.7665961 C27.0384844,48.1790824 27.2069609,48.5839686 27.4964141,48.8745569 C27.5707812,48.9493647 27.6491562,49.0161255 27.7351016,49.0711137 C27.8213437,49.1302745 27.9112969,49.1773647 28.0054062,49.2165569 C28.0992187,49.2560471 28.2011953,49.2871922 28.2990156,49.3071608 C28.4006953,49.3266824 28.502375,49.3386039 28.6042031,49.3386039 C28.7058828,49.3386039 28.8115703,49.3266824 28.9093906,49.3071608 C29.0112187,49.2871922 29.1091875,49.2560471 29.203,49.2165569 C29.2969609,49.1773647 29.3909219,49.1302745 29.4733047,49.0711137 C29.55925,49.0162745 29.6414844,48.9495137 29.7119922,48.8745569 C30.0015937,48.5839686 30.1699219,48.1792314 30.1699219,47.7665961 C30.1700703,47.3499373 30.0017422,46.945051 29.7121406,46.6546118 Z" id="Shape"></path>
            <path d="M33.2703359,58.4638196 C33.2508906,58.3617412 33.2194219,58.2635373 33.1843906,58.1690588 C33.1452031,58.0745804 33.0942891,57.980251 33.0395156,57.8976941 C32.9808828,57.8112627 32.9140859,57.7288549 32.8437266,57.6582196 C32.7732188,57.5871373 32.6909844,57.5203765 32.6050391,57.4616627 C32.5226562,57.4063765 32.4288437,57.3554118 32.3347344,57.3162196 C32.2409219,57.2767294 32.1429531,57.2494588 32.041125,57.2297882 C31.841625,57.1864235 31.6339609,57.1864235 31.4306016,57.2297882 C31.3287734,57.2493098 31.2308047,57.2765804 31.1369922,57.3162196 C31.0430312,57.3554118 30.9529297,57.4063765 30.8666875,57.4616627 C30.7805937,57.5203765 30.7022188,57.5871373 30.628,57.6582196 C30.5574922,57.7288549 30.4909922,57.8112627 30.4363672,57.8976941 C30.3774375,57.980251 30.3306797,58.0745804 30.2914922,58.1690588 C30.2523047,58.2633882 30.2209844,58.3617412 30.2015391,58.4638196 C30.1817969,58.5620235 30.1702188,58.6679765 30.1702188,58.770502 C30.1702188,58.8725804 30.1819453,58.9746588 30.2015391,59.0767373 C30.2209844,59.1749412 30.2523047,59.2732941 30.2914922,59.371498 C30.3306797,59.4658275 30.3775859,59.5564314 30.4363672,59.6428627 C30.4909922,59.7291451 30.5574922,59.8078275 30.628,59.8826353 C30.9216094,60.1732235 31.3249141,60.3425098 31.7357891,60.3425098 C32.1466641,60.3425098 32.5538281,60.1732235 32.8435781,59.8826353 C32.9139375,59.8078275 32.9805859,59.7291451 33.0393672,59.6428627 C33.0941406,59.5565804 33.1450547,59.4659765 33.1842422,59.371498 C33.2194219,59.2732941 33.2507422,59.1749412 33.2701875,59.0767373 C33.2899297,58.9746588 33.3015078,58.8725804 33.3015078,58.770502 C33.3016563,58.6679765 33.2900781,58.5620235 33.2703359,58.4638196 Z" id="Shape"></path>
            <path d="M19.1779766,44.3123216 C19.1585312,44.2141176 19.1309219,44.1157647 19.0920312,44.0214353 C19.0528437,43.9269569 19.0019297,43.8326275 18.9471562,43.7500706 C18.8885234,43.6636392 18.8257344,43.5812314 18.7513672,43.5105961 C18.6808594,43.4357882 18.598625,43.3727529 18.5126797,43.3140392 C18.4302969,43.2587529 18.3364844,43.2077882 18.242375,43.1685961 C18.1485625,43.1291059 18.0505937,43.1018353 17.9487656,43.0779922 C17.7492656,43.0388 17.5416016,43.0388 17.3382422,43.0779922 C17.2404219,43.1018353 17.1384453,43.1291059 17.0446328,43.1685961 C16.9506719,43.2077882 16.8605703,43.2587529 16.7743281,43.3140392 C16.6882344,43.3727529 16.6098594,43.4356392 16.5356406,43.5105961 C16.4651328,43.5812314 16.3986328,43.6636392 16.3440078,43.7500706 C16.2850781,43.8326275 16.2383203,43.9269569 16.1991328,44.0214353 C16.1599453,44.1157647 16.128625,44.2141176 16.1091797,44.3123216 C16.0894375,44.4144 16.0778594,44.5203529 16.0778594,44.6228784 C16.0778594,44.7249569 16.0895859,44.8270353 16.1091797,44.9291137 C16.128625,45.0273176 16.1599453,45.1298431 16.1991328,45.2238745 C16.2383203,45.3182039 16.2852266,45.4088078 16.3440078,45.4952392 C16.3986328,45.5815216 16.4651328,45.6602039 16.5356406,45.7350118 C16.6100078,45.8056471 16.6883828,45.8724078 16.7743281,45.9272471 C16.8605703,45.9864078 16.9505234,46.033498 17.0446328,46.0726902 C17.1384453,46.1121804 17.2404219,46.1433255 17.3382422,46.1632941 C17.4399219,46.1828157 17.5416016,46.1947373 17.6434297,46.1947373 C17.7451094,46.1947373 17.8507969,46.1828157 17.9486172,46.1632941 C18.0504453,46.1433255 18.1484141,46.1121804 18.2422266,46.0726902 C18.3361875,46.033498 18.4301484,45.9864078 18.5125312,45.9272471 C18.5984766,45.8724078 18.6807109,45.8056471 18.7512187,45.7350118 C18.8255859,45.6602039 18.8882266,45.5815216 18.9470078,45.4952392 C19.0017812,45.4089569 19.0526953,45.3183529 19.0918828,45.2238745 C19.1309219,45.1298431 19.1583828,45.0273176 19.1778281,44.9291137 C19.2014297,44.8270353 19.2091484,44.7249569 19.2091484,44.6228784 C19.2094453,44.5203529 19.2015781,44.4144 19.1779766,44.3123216 Z" id="Shape"></path>
            <path d="M17.6122578,34.8844471 C17.5928125,34.7823686 17.5613437,34.6841647 17.5263125,34.5896863 C17.487125,34.4952078 17.4362109,34.4008784 17.3814375,34.3183216 C17.3228047,34.2318902 17.2560078,34.1494824 17.1856484,34.0788471 C16.8215312,33.7131529 16.2813672,33.5480392 15.7725234,33.6463922 C15.6706953,33.6702353 15.5727266,33.6975059 15.4789141,33.7369961 C15.3849531,33.7761882 15.2948516,33.8271529 15.2086094,33.8824392 C15.1225156,33.9411529 15.0441406,34.0040392 14.9699219,34.0789961 C14.8994141,34.1496314 14.8329141,34.2320392 14.7782891,34.3184706 C14.7193594,34.4010275 14.6726016,34.4953569 14.6334141,34.5898353 C14.5942266,34.6841647 14.5629062,34.7825176 14.5434609,34.8845961 C14.5237187,34.9828 14.5121406,35.0887529 14.5121406,35.1912784 C14.5121406,35.2933569 14.5238672,35.3954353 14.5434609,35.4975137 C14.5629062,35.5957176 14.5942266,35.6940706 14.6334141,35.7922745 C14.6726016,35.8866039 14.7195078,35.9772078 14.7782891,36.0636392 C14.8329141,36.1499216 14.8994141,36.2286039 14.9699219,36.3034118 C15.0442891,36.3740471 15.1226641,36.4408078 15.2086094,36.4956471 C15.2948516,36.5548078 15.3848047,36.601898 15.4789141,36.6410902 C15.5727266,36.6805804 15.6705469,36.7117255 15.7725234,36.7316941 C15.8742031,36.7512157 15.9758828,36.7631373 16.0778594,36.7631373 C16.4887344,36.7631373 16.8921875,36.593851 17.1856484,36.3034118 C17.47525,36.008651 17.6435781,35.6037647 17.6435781,35.1912784 C17.6435781,35.0886039 17.6318516,34.982651 17.6122578,34.8844471 Z" id="Shape"></path>
            <path d="M71.3059609,38.4701569 L68.3155391,37.5234353 C66.3003516,36.8851843 65.5197188,36.0324941 65.4634609,35.4958745 C65.4073516,34.9589569 65.994125,33.9615686 67.8332656,32.9169412 L70.5621406,31.3668392 C72.6565938,30.1772157 74.9772656,28.5537961 74.3268125,26.5439686 C73.6762109,24.5336941 70.8478828,24.5912157 68.4572969,24.8633255 L65.3420391,25.2194824 C63.2419453,25.4608941 62.1838828,24.9992314 61.9150625,24.5322039 C61.6460938,24.0647294 61.7782031,22.913851 63.0351719,21.2083216 L64.8999922,18.6781176 C66.331375,16.7362431 67.7937813,14.3057333 66.3852578,12.7349176 C64.9765859,11.1655922 62.4154453,12.3707137 60.3423672,13.5968471 L57.6406563,15.1941882 C55.8200703,16.2710039 54.6668594,16.2826275 54.2316406,15.9652157 C53.7965703,15.648251 53.4508594,14.5425255 53.9081953,12.471302 L54.5867031,9.39881569 C55.1075703,7.04013333 55.4589219,4.22276863 53.5356172,3.36307451 C51.6126094,2.50144314 49.7615938,4.65060392 48.3642031,6.61706667 L46.5434688,9.17960784 C45.3160391,10.9070431 44.2645078,11.3897176 43.7414141,11.2761647 C43.2156484,11.164102 42.4519375,10.2956157 42.0306719,8.21664314 L41.4056016,5.13223529 C40.9257031,2.76505882 40.1048438,0.0475372549 37.9998516,0.0475372549 C35.8944141,0.0475372549 35.0738516,2.76505882 34.5941016,5.13223529 L33.9687344,8.21664314 C33.5476172,10.2951686 32.7842031,11.164102 32.2584375,11.2761647 C31.7337109,11.3855451 30.6830703,10.9068941 29.4559375,9.17960784 L27.6353516,6.61706667 C26.2379609,4.65060392 24.3857578,2.50531765 22.4640859,3.36262745 C20.5406328,4.22232157 20.8919844,7.03998431 21.4127031,9.39866667 L22.0915078,12.4711529 C22.5488438,14.5423765 22.2032813,15.6476549 21.7685078,15.9646196 C21.3334375,16.2832235 20.1791875,16.2701098 18.35875,15.1940392 L15.6576328,13.596698 C13.5839609,12.3705647 11.0226719,11.1651451 9.61474219,12.7347686 C8.20607031,14.3055843 9.66832813,16.7360941 11.0997109,18.6779686 L12.9646797,21.2081725 C14.2216484,22.913702 14.3537578,24.0645804 14.0849375,24.5316078 C13.8161172,24.9990824 12.7564219,25.460298 10.6578125,25.2193333 L7.54255469,24.8631765 C5.15167188,24.5910667 2.32349219,24.5335451 1.6731875,26.5438196 C1.02258594,28.5540941 3.34310938,30.1770667 5.43771094,31.3666902 L8.16658594,32.9167922 C10.0055781,33.9614196 10.5925,34.9585098 10.5363906,35.4954275 C10.4802813,36.031898 9.69964844,36.8850353 7.68416406,37.5232863 L4.6941875,38.4700078 C2.39904688,39.1964784 -0.207070312,40.2998196 0.0130625,42.4014431 C0.233046875,44.5038118 3.01090625,45.0390902 5.40624219,45.2705176 L8.52699219,45.5721333 C10.6303516,45.7755451 11.5707031,46.4467294 11.7366563,46.9598039 C11.9029063,47.4733255 11.535375,48.571302 9.95273438,49.9771529 L7.60460156,52.0625333 C5.802125,53.6636 3.86842969,55.7360157 4.921,57.5662745 C5.97416406,59.3972784 8.72827344,58.7514275 11.0103516,57.9845725 L13.9837031,56.9859922 C15.9871641,56.3128706 17.1184063,56.5419137 17.4780703,56.9433725 C17.8378828,57.3443843 17.9469844,58.4976471 17.0707578,60.4280471 L15.7705938,63.2922039 C14.7726484,65.4908392 13.8456563,68.1734902 15.5486797,69.4157176 C17.2530391,70.6591373 19.5069141,68.9440706 21.2811875,67.3118588 L23.5929531,65.185349 C25.1505078,63.7514824 26.2764063,63.4985961 26.7677344,63.7192941 C27.2589141,63.9388 27.8260938,64.9478118 27.8075391,67.0689569 L27.7802266,70.216698 C27.7591484,72.6326039 27.9993203,75.4617412 30.0584453,75.9012 C32.1178672,76.3414039 33.4833438,73.8536706 34.4428438,71.6381961 L35.6932813,68.7518353 C36.5358125,66.8065333 37.4622109,66.1159765 37.9997031,66.1159765 C38.5373438,66.1159765 39.4641875,66.8063843 40.3070156,68.7518353 L41.5570078,71.6381961 C42.4413984,73.6799137 43.6704609,75.9521647 45.4695234,75.9521647 C45.6225625,75.9521647 45.7799063,75.9356235 45.9414063,75.9012 C48.0005313,75.4617412 48.2407031,72.6326039 48.2197734,70.216698 L48.1924609,67.0689569 C48.1742031,64.9478118 48.7407891,63.938949 49.2318203,63.7197412 C49.7235938,63.4994902 50.8496406,63.7523765 52.4071953,65.185349 L54.7188125,67.3118588 C56.4927891,68.9437725 58.7477031,70.6572 60.4511719,69.4157176 C62.1543438,68.1734902 61.2273516,65.4903922 60.2292578,63.2922039 L58.9292422,60.4284941 C58.0528672,58.4976471 58.1619688,57.3443843 58.5214844,56.9433725 C58.8814453,56.5431059 60.0122422,56.3136157 62.0162969,56.9859922 L64.9896484,57.9845725 C67.2712813,58.7514275 70.0258359,59.3960863 71.0788516,57.5662745 C72.1314219,55.7360157 70.1977266,53.6636 68.39525,52.0625333 L66.0471172,49.9771529 C64.464625,48.571749 64.0970938,47.4737725 64.2631953,46.960251 C64.4292969,46.4471765 65.3695,45.7755451 67.4728594,45.5721333 L70.5937578,45.2705176 C72.9890938,45.0390902 75.7669531,44.5036627 75.9869375,42.4017412 C76.2069219,40.2995216 73.6008047,39.1961804 71.3059609,38.4701569 Z M70.2936172,42.1412549 L67.1727188,42.4428706 C62.9150859,42.8546118 61.6563359,44.8414902 61.2846484,45.9889412 C60.9132578,47.1363922 60.7685313,49.4862824 63.9721094,52.3319608 L66.3202422,54.4174902 C66.7516016,54.8004706 67.0879609,55.1286118 67.3499531,55.4048941 C66.9806406,55.3154824 66.5298359,55.1868784 65.9832891,55.0034353 L63.0100859,54.0048549 C58.9521016,52.6416235 56.9986641,53.9430118 56.1944297,54.8399608 C55.3900469,55.7364627 54.3057109,57.8242275 56.0795391,61.7322667 L57.3797031,64.5964235 C57.6185391,65.1226118 57.7931016,65.5596863 57.9201641,65.9189725 C57.6191328,65.6863529 57.2591719,65.3847373 56.8343438,64.9940078 L54.5227266,62.867498 C51.3693203,59.9669804 49.0563672,60.3568157 47.9580781,60.8476863 C46.8602344,61.3385569 45.0237656,62.8026745 45.0607266,67.0968235 L45.0880391,70.2445647 C45.0932344,70.8229098 45.0754219,71.2930667 45.0461797,71.6730667 C44.8653828,71.3380706 44.6587578,70.915451 44.4288281,70.3850902 L43.1785391,67.4987294 L43.1786875,67.4987294 C41.4729922,63.5604392 39.2016016,62.9724078 37.9995547,62.9724078 C36.7976563,62.9724078 34.5267109,63.5607373 32.8211641,67.4987294 L31.5707266,70.3850902 C31.3409453,70.915451 31.1343203,71.3380706 30.9535234,71.6730667 C30.9242813,71.2930667 30.9064688,70.8230588 30.9116641,70.2445647 L30.9389766,67.0968235 C30.9760859,62.8026745 29.1394688,61.3382588 28.0413281,60.8473882 C26.9430391,60.3565176 24.6300859,59.9669804 21.4769766,62.8676471 L19.1653594,64.9941569 C18.7403828,65.3851843 18.3802734,65.6868 18.0792422,65.9191216 C18.2063047,65.5598353 18.3808672,65.1227608 18.6197031,64.5965725 L19.9198672,61.7324157 C21.6938438,57.8248235 20.6093594,55.7366118 19.8049766,54.8398118 C19.0007422,53.9433098 17.0458203,52.6423686 12.9897656,54.0051529 L10.0164141,55.0037333 C9.46971875,55.1871765 9.01861719,55.3157804 8.64960156,55.4051922 C8.91129688,55.1289098 9.24765625,54.8010667 9.6793125,54.4177882 L12.0274453,52.3322588 C15.230875,49.4865804 15.0862969,47.1363922 14.7146094,45.9887922 C14.3432188,44.8413412 13.0846172,42.8544627 8.8266875,42.4430196 L5.7059375,42.1414039 C5.13222656,42.0858196 4.66821094,42.0190588 4.29474219,41.9499137 C4.64579688,41.8044706 5.08591406,41.6424863 5.63557813,41.4682824 L8.62570313,40.5215608 C12.7050625,39.2301569 13.5248828,37.0242196 13.6506094,35.8241647 C13.7761875,34.6241098 13.4309219,32.2953804 9.70840625,30.1807922 L6.97953125,28.6306902 C6.47796094,28.3459137 6.0811875,28.0952627 5.76813281,27.8800784 C6.14783594,27.8903608 6.61541406,27.9219529 7.1879375,27.9875216 L10.3031953,28.3436784 C14.5508828,28.8279922 16.1958672,27.1489882 16.7967422,26.1039137 C17.3976172,25.0588392 18.0259531,22.7907608 15.4817344,19.3387216 L13.6167656,16.8085176 C13.2740234,16.3434275 13.0132188,15.952698 12.8143125,15.6279843 C13.1569063,15.792651 13.5714922,16.0121569 14.0680156,16.3057255 L16.7692813,17.9030667 C20.4548359,20.0829255 22.6367188,19.2174196 23.6089844,18.5086824 C24.5815469,17.799498 26.0745313,15.9838431 25.148875,11.7910275 L24.4700703,8.71854118 C24.3452344,8.15360784 24.2652266,7.68956078 24.2153516,7.3119451 C24.4616094,7.60208627 24.7513594,7.97210196 25.0859375,8.4428549 L26.9065234,11.0056941 C29.390625,14.5008 31.7335625,14.6018353 32.9099297,14.3511843 C34.0855547,14.1002353 36.1850547,13.0509882 37.0378281,8.84356863 L37.6631953,5.75916078 C37.7780859,5.1922902 37.8926797,4.7355451 38,4.37029804 C38.1074688,4.73569412 38.2220625,5.1922902 38.3369531,5.75916078 L38.9621719,8.84356863 C39.8150938,13.0512863 41.9147422,14.1005333 43.0906641,14.3511843 C44.2655469,14.6021333 46.609375,14.5008 49.0931797,11.0053961 L50.9140625,8.4428549 C51.2487891,7.97195294 51.5382422,7.60163922 51.7846484,7.31149804 C51.734625,7.68956078 51.6544688,8.15316078 51.5296328,8.71809412 L50.851125,11.7910275 C49.9254688,15.9833961 51.41875,17.799498 52.3913125,18.5086824 C53.363875,19.2175686 55.5454609,20.0824784 59.2302734,17.9027686 L61.9319844,16.3054275 C62.4283594,16.0118588 62.8427969,15.7923529 63.1852422,15.6276863 C62.9864844,15.9524 62.7253828,16.3429804 62.3827891,16.8082196 L60.5179688,19.3384235 C57.97375,22.7901647 58.6019375,25.0589882 59.2031094,26.1040627 C59.8038359,27.1486902 61.4474844,28.8296314 65.6965078,28.3433804 L68.8117656,27.9872235 C69.3842891,27.9216549 69.8518672,27.8900627 70.2315703,27.8797804 C69.9183672,28.0951137 69.5214453,28.3456157 69.0201719,28.6303922 L66.2912969,30.1804941 C62.5684844,32.2950824 62.2235156,34.6242588 62.3492422,35.8243137 C62.4748203,37.0243686 63.2947891,39.2303059 67.3738516,40.5214118 L70.3642734,41.4681333 C70.9137891,41.6423373 71.3540547,41.8043216 71.7049609,41.9497647 C71.3313438,42.0189098 70.8673281,42.0856706 70.2936172,42.1412549 Z" id="Shape"></path>
        </g>
    </g>
</svg>