<?xml version="1.0" encoding="UTF-8"?>
<svg width="88px" height="76px" viewBox="0 0 88 76" version="1.1" xmlns="http://www.w3.org/2000/svg" xmlns:xlink="http://www.w3.org/1999/xlink">
    <!-- Generator: Sketch 43.1 (39012) - http://www.bohemiancoding.com/sketch -->
    <title>icons</title>
    <desc>Created with Sketch.</desc>
    <defs></defs>
    <g id="Page-1" stroke="none" stroke-width="1" fill="none" fill-rule="evenodd">
        <g id="kid" fill-rule="nonzero" fill="#F2A87C">
            <path d="M79.7745781,26.8116147 C75.0548906,11.3210367 60.8026719,0.0339908257 43.9991406,0.0339908257 C27.1954375,0.0339908257 12.9430469,11.3210367 8.22370312,26.811789 C3.403125,28.2667706 -5.68434189e-14,32.8191009 -5.68434189e-14,37.9998257 C-5.68434189e-14,43.1802018 3.403125,47.7325321 8.22353125,49.1875138 C12.942875,64.678789 27.1954375,75.9660092 43.9991406,75.9660092 C60.8028437,75.9660092 75.0552344,64.678789 79.77475,49.1878624 C84.5961875,47.7342752 88,43.1821193 88,37.9998257 C88,32.8171835 84.5960156,28.2650275 79.7745781,26.8116147 Z M7.22717187,45.1213394 C4.8406875,43.637945 3.2835,40.9626055 3.2835,37.9996514 C3.2835,35.0365229 4.84051562,32.3611835 7.22734375,30.8779633 C6.79370312,33.1858532 6.56390625,35.5659083 6.56390625,37.9998257 C6.56390625,40.4337431 6.79353125,42.8137982 7.22717187,45.1213394 Z M43.9991406,72.6357798 C25.168,72.6357798 9.84757813,57.0981376 9.84757813,38 C9.84757813,24.792211 17.1759844,13.2891927 27.9241875,7.44869725 C29.557,10.9724128 34.6931406,19.7891101 46.8680781,24.7282385 C47.0679688,24.8094679 47.2742188,24.8478165 47.4772031,24.8478165 C48.1286094,24.8478165 48.7452969,24.4517798 49.0020781,23.8005505 C49.3387813,22.9467706 48.9292031,21.9777706 48.0871875,21.6361193 C37.0249688,17.1484587 32.3154219,9.01663303 30.8993438,6.01498165 C34.6286875,4.43798165 38.6902656,3.5136055 42.945375,3.38217431 C44.0831875,5.72266055 47.3501875,11.2173211 54.1005781,14.3293119 C54.3210938,14.4309358 54.55175,14.4788716 54.7789688,14.4788716 C55.4030469,14.4788716 55.999625,14.1161284 56.2747969,13.5023761 C56.65,12.665156 56.2849375,11.6782018 55.4594219,11.2976789 C50.9112656,9.20105505 48.1818906,5.77233945 46.7675313,3.47874312 C64.30875,4.91298165 78.1501875,19.8473303 78.1501875,38.0001743 C78.1507031,57.0981376 62.830625,72.6357798 43.9991406,72.6357798 Z M80.7705937,45.1227339 C81.2044062,42.8146697 81.4340312,40.4340917 81.4340312,38 C81.4340312,35.5657339 81.2042344,33.1848073 80.77025,30.8765688 C83.1581094,32.3589174 84.7159844,35.0347798 84.7159844,37.9998257 C84.7163281,40.9645229 83.158625,43.6403853 80.7705937,45.1227339 Z" id="Shape"></path>
            <path d="M29.6807829,35.9595046 C25.7894641,35.9595046 22.6237957,39.1982202 22.6237957,43.1793303 C22.6237957,44.0988257 23.3523424,44.8443578 24.2512696,44.8443578 C25.1501967,44.8443578 25.8787435,44.0988257 25.8787435,43.1793303 C25.8787435,41.034422 27.5842516,39.2897339 29.6806125,39.2897339 C31.7769734,39.2897339 33.4826519,41.0345963 33.4826519,43.1793303 C33.4826519,44.0988257 34.2111986,44.8443578 35.1101258,44.8443578 C36.009053,44.8443578 36.7375997,44.0988257 36.7375997,43.1793303 C36.7379405,39.1982202 33.5721016,35.9595046 29.6807829,35.9595046 Z" id="Shape"></path>
            <path d="M57.5522959,35.9595046 C53.6609772,35.9595046 50.4951383,39.1982202 50.4951383,43.1793303 C50.4951383,44.0988257 51.2236851,44.8443578 52.1226122,44.8443578 C53.0217098,44.8443578 53.7500861,44.0988257 53.7500861,43.1793303 C53.7500861,41.034422 55.4555943,39.2897339 57.5521255,39.2897339 C59.6488272,39.2897339 61.3541649,41.0345963 61.3541649,43.1793303 C61.3541649,44.0988257 62.0827117,44.8443578 62.9816389,44.8443578 C63.8807364,44.8443578 64.6091128,44.0988257 64.6091128,43.1793303 C64.6091128,39.1982202 61.4436147,35.9595046 57.5522959,35.9595046 Z" id="Shape"></path>
            <path d="M53.5780019,54.385844 C52.9421421,53.7356606 51.9118516,53.7356606 51.2759918,54.385844 C47.1393253,58.6179633 40.4084462,58.6179633 36.2717796,54.385844 C35.6359198,53.7356606 34.6056293,53.7356606 33.9701103,54.385844 C33.3344209,55.0360275 33.3344209,56.0904404 33.9701103,56.7404495 C36.5905614,59.421367 40.072456,60.8979633 43.7741413,60.8979633 C47.4758266,60.8979633 50.9575508,59.4215413 53.5781723,56.7404495 C54.2136913,56.0902661 54.2136913,55.0360275 53.5780019,54.385844 Z" id="Shape"></path>
            <path d="M45.7883788,45.5876239 L41.4448704,45.5876239 C40.5457728,45.5876239 39.8173965,46.333156 39.8173965,47.2526514 C39.8173965,48.1721468 40.5461136,48.9176789 41.4448704,48.9176789 L45.7883788,48.9176789 C46.6874764,48.9176789 47.4158527,48.1721468 47.4158527,47.2526514 C47.4158527,46.333156 46.687306,45.5876239 45.7883788,45.5876239 Z" id="Shape"></path>
        </g>
    </g>
</svg>