<?xml version="1.0" encoding="UTF-8"?>
<svg width="36px" height="40px" viewBox="0 0 36 40" version="1.1" xmlns="http://www.w3.org/2000/svg" xmlns:xlink="http://www.w3.org/1999/xlink">
    <!-- Generator: Sketch 43.1 (39012) - http://www.bohemiancoding.com/sketch -->
    <title>Combined Shape</title>
    <desc>Created with Sketch.</desc>
    <defs></defs>
    <g id="Bootstrap-4-Grid-System" stroke="none" stroke-width="1" fill="none" fill-rule="evenodd">
        <g id="180---iPhone-6-Plus" transform="translate(-74.000000, -74.000000)" fill="#FFFFFF">
            <path d="M74.6990268,104.000006 C78.152455,109.978016 84.607169,114 92,114 C99.392831,114 105.847545,109.978016 109.300973,104.000006 L106.962504,104 C103.736337,108.830602 98.2391349,112.011486 92,112.011486 C85.7608651,112.011486 80.263663,108.830602 77.0374959,104 L74.6990236,104 Z M74.1586927,85 C77.447878,78.4748433 84.2020664,74 92,74 C99.7979336,74 106.552122,78.4748433 109.841307,85 L107.584132,85 C104.474881,79.6131873 98.660163,75.9885135 92,75.9885135 C85.339837,75.9885135 79.5251194,79.6131873 76.4158685,85 L74.1586927,85 Z" id="Combined-Shape"></path>
        </g>
    </g>
</svg>