<?xml version="1.0" encoding="UTF-8"?>
<svg width="87px" height="76px" viewBox="0 0 87 76" version="1.1" xmlns="http://www.w3.org/2000/svg" xmlns:xlink="http://www.w3.org/1999/xlink">
    <!-- Generator: Sketch 43.1 (39012) - http://www.bohemiancoding.com/sketch -->
    <title>icons</title>
    <desc>Created with Sketch.</desc>
    <defs></defs>
    <g id="Page-1" stroke="none" stroke-width="1" fill="none" fill-rule="evenodd">
        <g id="pollution" fill-rule="nonzero" fill="#F2A87C">
            <path d="M75.3696479,26.6725109 C76.3368886,24.5331537 76.8401241,22.2055721 76.8401241,19.8207704 C76.8401241,10.6576356 69.4059038,3.20301271 60.268266,3.20301271 C57.5107007,3.20301271 54.8345992,3.87967902 52.4359247,5.17277988 C49.3170284,1.88487802 45.0347403,0.0293629889 40.4474325,0.0293629889 C34.4682967,0.0293629889 28.9920209,3.26192691 26.0617676,8.39329744 C24.7271893,8.05204681 23.3531931,7.87963336 21.9589249,7.87963336 C12.8210994,7.87963336 5.38706679,15.3344445 5.38706679,24.4973911 C5.38706679,26.194233 5.63877839,27.8553123 6.13732127,29.4533366 C2.51462641,32.5942352 0.390000341,37.1968838 0.390000341,42.0350008 C0.390000341,50.7864891 7.17138479,57.9798567 15.7414044,58.6083376 C15.7228217,58.9294482 15.7134365,59.2513118 15.7134365,59.5726106 C15.7134365,68.7357454 23.1476568,76.1903683 32.2852946,76.1903683 C37.7165213,76.1903683 42.7800351,73.4863382 45.8506913,69.115582 C48.9361762,72.2252355 53.1578358,74.0192012 57.6030513,74.0192012 C66.2918878,74.0192012 73.4400467,67.2794541 74.1216013,58.7391535 C81.5685856,57.0411822 87,50.345856 87,42.5364303 C87,35.2069766 82.1564757,28.8049039 75.3696479,26.6725109 Z M72.0202506,55.2154066 C71.0473787,55.3368113 70.3228398,56.1759151 70.3425487,57.1590106 C70.3442381,57.2395706 70.3457397,57.3203188 70.3457397,57.4012553 C70.3457397,64.4472432 64.6292023,70.1796139 57.6026759,70.1796139 C53.4365768,70.1796139 49.5248172,68.1292868 47.1389066,64.6951346 C46.7477306,64.1319676 46.0840079,63.8213975 45.404518,63.879747 C44.7227756,63.9382848 44.1239986,64.3574603 43.8339953,64.9789769 C41.745033,69.4573973 37.2115965,72.3509693 32.2849191,72.3509693 C25.2583928,72.3509693 19.5418554,66.6185986 19.5418554,59.5726106 C19.5418554,58.7348243 19.6240699,57.8945911 19.7856834,57.0746861 C19.9011216,56.4900615 19.7391327,55.8851086 19.3475813,55.4367584 C18.9828717,55.0194651 18.4572994,54.7821143 17.9077009,54.7821143 C17.8671567,54.7821143 17.8266126,54.7834319 17.7866315,54.786067 C17.4970037,54.804513 17.2272724,54.8135477 16.961483,54.8135477 C9.93495662,54.8135477 4.21841922,49.0811771 4.21841922,42.0351891 C4.21841922,37.9373581 6.20151617,34.0582438 9.52350858,31.6589488 C10.2433549,31.138885 10.5127108,30.1911758 10.1742797,29.3686356 C9.53796182,27.8227495 9.21511026,26.1838807 9.21511026,24.4975793 C9.21511026,17.4515913 14.9316477,11.7192206 21.9581741,11.7192206 C23.4767026,11.7192206 24.9623829,11.9844286 26.3733569,12.5071275 C27.3214518,12.858354 28.3786029,12.4100037 28.7874231,11.4831873 C30.828333,6.8577637 35.4049416,3.86913846 40.4463063,3.86913846 C44.4168174,3.86913846 48.0909433,5.67759742 50.526971,8.83073069 C51.1458323,9.63237793 52.2797546,9.81288502 53.1161654,9.2431301 C55.2291538,7.80359075 57.7017838,7.04278818 60.2671398,7.04278818 C67.2936662,7.04278818 73.0102036,12.7751589 73.0102036,19.8211468 C73.0102036,22.3591631 72.2695221,24.8115374 70.8686841,26.9126851 C70.5022852,27.4623 70.4437214,28.1623062 70.7136403,28.765565 C70.9833715,29.3688238 71.5438569,29.7900698 72.1968805,29.8811704 C78.4526926,30.7517077 83.1702672,36.1923307 83.1702672,42.5364303 C83.1712057,48.9712541 78.3772354,54.4222294 72.0202506,55.2154066 Z" id="Shape"></path>
            <path d="M30.9619786,41.4991263 C30.0546155,41.4991263 29.3974624,41.7814627 29.3349568,42.597415 C29.2099457,43.9778519 28.9283891,46.1428077 25.7368513,46.1428077 C23.2651598,46.1428077 21.9196947,44.8564829 21.9196947,42.0954208 L21.9196947,32.9652253 C21.9196947,30.2041632 23.2651598,28.9178385 25.6743457,28.9178385 C28.8970425,28.9178385 29.2724513,31.1767181 29.3351446,32.2750069 C29.3663035,33.027904 29.9921099,33.3731073 30.9935129,33.3731073 C32.119927,33.3731073 32.6518812,33.0591492 32.6518812,31.6474671 C32.6518812,28.3215439 29.8359399,25.9685521 25.5493346,25.9685521 C21.7633369,25.9685521 18.6031457,27.8824166 18.6031457,32.9652253 L18.6031457,42.0954208 C18.6031457,47.1780413 21.732178,49.0920941 25.5181756,49.0920941 C29.804781,49.0920941 32.6520689,46.6760471 32.6520689,43.2247666 C32.6516935,41.8443296 32.1197393,41.4991263 30.9619786,41.4991263 Z" id="Shape"></path>
            <path d="M42.5386472,25.9683639 C38.5651329,25.9683639 35.5299528,27.8822284 35.5299528,32.9650371 L35.5299528,42.0952326 C35.5299528,47.1780413 38.5651329,49.0919058 42.5386472,49.0919058 C46.480815,49.0919058 49.5786883,47.1780413 49.5786883,42.0952326 L49.5786883,32.9650371 C49.5785006,27.8822284 46.4810027,25.9683639 42.5386472,25.9683639 Z M46.2619516,42.0954208 C46.2619516,44.8564829 44.853981,46.1428077 42.5388349,46.1428077 C40.1921546,46.1428077 38.8466895,44.8564829 38.8466895,42.0954208 L38.8466895,32.9652253 C38.8466895,30.2041632 40.1921546,28.9178385 42.5388349,28.9178385 C44.8541687,28.9178385 46.2619516,30.2041632 46.2619516,32.9652253 L46.2619516,42.0954208 Z" id="Shape"></path>
            <path d="M64.9421055,45.9545834 L55.7430884,45.9545834 L55.7430884,44.7623708 C55.7430884,41.1541112 65.8806275,38.9579102 65.8806275,32.2121399 C65.8806275,28.4469013 62.8142885,25.9683639 59.1846486,25.9683639 C55.7742474,25.9683639 52.7706016,28.1645649 52.7706016,31.5219215 C52.7706016,32.9339801 53.3964081,33.3731073 54.2724245,33.3731073 C55.3674919,33.3731073 56.0244573,32.7455676 56.0244573,32.1180278 C56.0244573,29.9846937 57.432428,29.0119506 59.1846486,29.0119506 C61.5626756,29.0119506 62.5638908,30.7690243 62.5638908,32.3064403 C62.5638908,37.1381578 52.3324995,39.6795621 52.3324995,44.762559 L52.3324995,47.8061457 C52.3324995,48.4649307 53.1771693,48.9042462 53.8031635,48.9042462 L64.9421055,48.9042462 C65.5054064,48.9042462 66.037173,48.1824061 66.037173,47.3982637 C66.037173,46.6137449 65.505031,45.9545834 64.9421055,45.9545834 Z" id="Shape"></path>
        </g>
    </g>
</svg>