<?xml version="1.0" encoding="UTF-8"?>
<svg width="76px" height="76px" viewBox="0 0 76 76" version="1.1" xmlns="http://www.w3.org/2000/svg" xmlns:xlink="http://www.w3.org/1999/xlink">
    <!-- Generator: Sketch 43.1 (39012) - http://www.bohemiancoding.com/sketch -->
    <title>icons</title>
    <desc>Created with Sketch.</desc>
    <defs></defs>
    <g id="Page-1" stroke="none" stroke-width="1" fill="none" fill-rule="evenodd">
        <g id="pollen" transform="translate(-1.000000, -1.000000)" fill-rule="nonzero" fill="#F2A87C">
            <path d="M76.2703893,37.8295027 C72.6675568,35.8198684 68.7588136,34.4724966 64.7371713,33.8176519 C68.2119723,31.6632219 71.3176629,28.9064653 73.8552973,25.7003375 C74.1435535,25.3362711 74.2120941,24.84447 74.0342149,24.4152753 C73.8563358,23.9860805 73.4603728,23.6868459 72.9989847,23.6329926 C68.9384731,23.159736 64.7945851,23.4060074 60.8152244,24.3391685 C61.8480809,22.9042665 62.7738241,21.3926642 63.5839978,19.8117796 C63.9066727,19.1823038 63.6577309,18.4102577 63.0281068,18.0875828 C62.398631,17.7649078 61.6265849,18.013998 61.30391,18.6434738 C59.9540161,21.2781331 58.2599356,23.7073191 56.259351,25.8822223 C56.2470374,25.895426 56.2347239,25.9084813 56.2231521,25.9221301 C55.9249559,26.2452501 55.6203805,26.5627326 55.3086839,26.8744292 C54.161148,28.0219651 52.9256368,29.0836027 51.6263324,30.0446547 C50.5942177,28.5791913 49.314793,27.3000634 47.8491812,26.268097 C51.6586741,21.1226558 56.9070746,17.1977417 62.9014105,14.9943541 C62.8408812,15.1593263 62.7791649,15.3234083 62.7162619,15.4867486 C62.4618308,16.1469341 62.7907367,16.8882705 63.4506255,17.1427015 C64.1103659,17.3971326 64.8521474,17.068375 65.1065784,16.4081895 C65.491563,15.409455 65.8353045,14.3803074 66.1283082,13.3496762 C66.2554495,12.9028271 66.1303852,12.4223011 65.8020727,12.0938402 C65.4734635,11.7653794 64.9927892,11.6401667 64.5462367,11.767308 C60.5777059,12.8940741 56.8610841,14.7055044 53.5540741,17.0861778 C54.4891638,13.1028114 54.736622,8.95625305 54.2645523,4.89574136 C54.2108474,4.43450166 53.9119094,4.038242 53.4827147,3.86021445 C53.0536683,3.68248362 52.5617188,3.75072751 52.1976525,4.03883543 C48.9906345,6.57528293 46.2326911,9.68112188 44.0770742,13.1578516 C43.4185206,9.12256045 42.0646211,5.21010834 40.0662619,1.62582036 C39.841057,1.22065932 39.4127524,0.969047055 38.9483972,0.969047055 C38.484042,0.969047055 38.0558858,1.22051097 37.8296424,1.62611707 C35.8203048,5.22865288 34.4730813,9.13695101 33.8180883,13.1581483 C31.6636583,9.6837923 28.9061599,6.5781017 25.6992903,4.03957721 C25.3349272,3.75132094 24.8434228,3.68278033 24.4142281,3.86036281 C23.9850333,4.03809365 23.6856503,4.43420494 23.631797,4.89559301 C23.1583921,8.95669812 23.4049602,13.102218 24.3396049,17.082914 C21.0208747,14.696603 17.2965383,12.8884365 13.3477389,11.7674564 C12.9008898,11.6409085 12.4206605,11.7658245 12.0920513,12.0939886 C11.7637388,12.4224494 11.6388228,12.9028271 11.7656674,13.3496762 C12.8922851,17.3173169 14.7032704,21.0333453 17.0839438,24.3399103 C13.102506,23.4060074 8.9571345,23.1594393 4.8963261,23.6313606 C4.43478968,23.6850656 4.03882674,23.9841519 3.86079919,24.4131983 C3.68277164,24.8422447 3.75131225,25.3338974 4.03942016,25.6982605 C6.57557096,28.9049817 9.68051977,31.6623317 13.1553208,33.8176519 C9.12180998,34.4767989 5.21039637,35.8308468 1.62596002,37.8293544 C1.22065064,38.0557461 0.969038367,38.483754 0.969038367,38.9481092 C0.969038367,39.4124644 1.22050228,39.8406206 1.62610838,40.0670123 C5.22864419,42.0763499 9.13709068,43.4225349 13.1581396,44.0775279 C9.68126155,46.2322547 6.57512589,48.9901982 4.0379366,52.1979579 C3.74982868,52.5623209 3.68143643,53.0538253 3.85931563,53.4828717 C4.03704646,53.9119181 4.4330094,54.2111528 4.89439747,54.2648577 C6.2156586,54.4188516 7.56199194,54.4988156 8.89586335,54.5023761 L8.8994239,54.5023761 C9.60530313,54.5023761 10.1782551,53.9310561 10.1803321,53.2248801 C10.1822607,52.5175173 9.61019889,51.94234 8.90283609,51.9405597 C8.48610327,51.9393729 8.06788689,51.9303231 7.6496705,51.9132622 C10.4857977,48.8402099 13.9152017,46.3129605 17.6911661,44.5206682 C18.0792661,44.5334268 18.4673662,44.5405479 18.8559113,44.5405479 C20.6830674,44.5405479 22.5148225,44.3967907 24.3339673,44.1107598 C24.5180775,44.6306002 24.7284467,45.1381271 24.965075,45.6309667 C23.4791384,46.7129291 22.0722757,47.9122413 20.7743065,49.2105073 C20.5013309,49.4834828 20.2333995,49.7612058 19.9699187,50.0426377 C17.6987322,50.8516245 15.3423893,51.4110761 12.9597872,51.700816 C12.2574685,51.7862692 11.7573595,52.4247947 11.8428127,53.1271133 C11.9218866,53.7767655 12.4743654,54.2534343 13.1128909,54.2534343 C13.1645189,54.2534343 13.216592,54.2503188 13.2691101,54.2439395 C14.5485347,54.0883137 15.8205416,53.8592516 17.0783062,53.5629841 C14.6924403,56.8812693 12.8853124,60.603677 11.7658158,64.5492125 C11.6391195,64.9960617 11.7640355,65.476291 12.0924964,65.8047518 C12.3360974,66.0483528 12.6630746,66.1799449 12.9982115,66.1799449 C13.1148196,66.1799449 13.2326144,66.1639224 13.3480356,66.131284 C17.315973,65.0049631 21.0320014,63.1939778 24.3390115,60.8136011 C23.4040701,64.7972642 23.1577987,68.9429324 23.6322421,73.0016638 C23.6860954,73.4627552 23.9854784,73.8588665 24.4145248,74.036449 C24.5725243,74.1018741 24.7388317,74.1337707 24.9043973,74.1337707 C25.1883512,74.1337707 25.469338,74.0395645 25.6994386,73.8573829 C28.9046763,71.3212321 31.661878,68.2152448 33.8171982,64.7382184 C34.4759001,68.7743997 35.8305414,72.6871485 37.8299391,76.2709914 C38.0561825,76.6765975 38.4844871,76.9279131 38.9488423,76.9279131 C39.4133458,76.9279131 39.8413537,76.6763008 40.0675971,76.2706947 C42.0761929,72.6680106 43.4228229,68.7597124 44.0775193,64.7386635 C46.2331362,68.2145031 48.9906345,71.3206387 52.1967623,73.8588665 C52.4270113,74.041048 52.7079981,74.135551 52.9919521,74.135551 C53.1575177,74.135551 53.3238251,74.103506 53.4818245,74.0380809 C53.9110193,73.8603501 54.2104023,73.4642388 54.2642556,73.0028507 C54.7375122,68.9415972 54.4910924,64.7957807 53.5571895,60.8140462 C56.8753263,63.2005055 60.5990692,65.0092654 64.5472752,66.1314324 C64.6626964,66.1642191 64.7806397,66.1802416 64.8973961,66.1802416 C65.2323846,66.1802416 65.5595102,66.0485012 65.8031112,65.8051969 C66.131572,65.4767361 66.2566364,64.9963584 66.1296434,64.5495092 C65.002729,60.5793465 63.2019804,56.868659 60.8195267,53.5592752 C63.4792583,54.18252 66.2112394,54.5004475 68.9424787,54.5004475 C70.2987519,54.5004475 71.6553218,54.4224121 73.0019519,54.2654512 C73.4631916,54.2115978 73.8593029,53.9123632 74.0371821,53.4833168 C74.2150613,53.0542704 74.1465207,52.5626176 73.8582644,52.1982546 C71.3215202,48.9921268 68.2159779,46.2349251 64.7401384,44.0796049 C68.7740943,43.4204579 72.6862497,42.0662617 76.2712795,40.0676058 C76.6768856,39.8415108 76.9284978,39.4133545 76.9284978,38.948851 C76.9274593,38.4839023 76.6759954,38.0558944 76.2703893,37.8295027 Z M57.1205593,28.6864529 C57.392348,28.4146642 57.6582025,28.1378313 57.9204964,27.857883 C61.855202,26.4568062 66.0642183,25.8191709 70.2422282,25.985775 C67.4055075,29.057492 63.977142,31.5838513 60.2036997,33.3761436 C57.9914107,33.303449 55.7671048,33.439195 53.5613435,33.7859037 C53.3772334,33.2660632 53.1665674,32.758388 52.9300875,32.2655484 C54.4120185,31.1874432 55.8188812,29.988131 57.1205593,28.6864529 Z M44.5212529,17.6877626 C46.3144354,13.9143203 48.840943,10.4866965 51.9116216,7.65249796 C52.0767421,11.829321 51.4377716,16.0416011 50.0358046,19.9809057 C48.4206497,21.4933981 46.9442079,23.1616646 45.6300678,24.9658255 C45.1367832,24.7293455 44.6291079,24.5186796 44.1088224,24.3344211 C44.3941116,22.5221006 44.5405392,20.6796639 44.5405392,18.8412327 C44.5405392,18.4562481 44.5337148,18.071857 44.5212529,17.6877626 Z M38.9479521,5.07169192 C40.9363715,9.37446943 41.9787228,14.0877488 41.9787228,18.8410844 C41.9787228,20.4600966 41.8563289,22.0822242 41.6176236,23.6804666 C40.750036,23.5291432 39.8579696,23.4494758 38.9476554,23.4494758 C38.0365994,23.4494758 37.1439396,23.5292915 36.2756103,23.6807633 C35.3322126,17.3506971 36.2681925,10.8664886 38.9479521,5.07169192 Z M25.9844311,7.65264632 C29.0571866,10.489812 31.5841393,13.9183259 33.3761349,17.690878 C33.3031436,19.9036121 33.439038,22.1282147 33.7857466,24.3345695 C33.2660546,24.5186796 32.7588244,24.7290488 32.2659848,24.9655288 C31.1840224,23.4795921 29.9845618,22.0724327 28.6861475,20.7743152 C28.4140621,20.5022297 28.1373776,20.2351884 27.8568358,19.9724494 C26.4559074,16.0375955 25.8181237,11.8282825 25.9844311,7.65264632 Z M14.9928618,14.9946508 C19.4442923,16.630724 23.5145955,19.2253272 26.8748655,22.5855971 C28.019286,23.7300176 29.0812203,24.9658255 30.0452395,26.2685421 C28.579331,27.3008051 27.299758,28.5803781 26.2676432,30.0462867 C21.1214602,26.2362004 17.1961011,20.9877999 14.9928618,14.9946508 Z M5.07168324,38.9485543 C9.37624102,36.958948 14.089372,35.9160033 18.841224,35.9160033 C20.4599395,35.9160033 22.0819188,36.0382489 23.6800128,36.2769542 C23.528541,37.1451352 23.4488737,38.0376466 23.4488737,38.9487026 C23.4488737,39.8599069 23.5286894,40.7525667 23.6801612,41.6210445 C17.3497982,42.5642938 10.86648,41.6284623 5.07168324,38.9485543 Z M24.3342641,33.7857553 C22.5219436,33.5004662 20.6796552,33.3540385 18.8413724,33.3540385 C18.4549042,33.3540385 18.0687328,33.3608629 17.6830065,33.3736215 C13.9116412,31.5810325 10.4860944,29.0551183 7.65263763,25.9850332 C11.8297574,25.8194676 16.040999,26.4573996 19.9777816,27.8581797 C21.4908674,29.4740764 23.1598757,30.9511117 24.965075,32.2659935 C24.7288918,32.7586847 24.5183742,33.2659149 24.3342641,33.7857553 Z M14.9924168,62.9037929 C16.6278965,58.4544394 19.2235382,54.3836911 22.5855885,51.0216409 C23.7298605,49.8773688 24.9653717,48.8157312 26.2682367,47.8514153 C27.3004997,49.3173238 28.5802211,50.5967484 30.0461296,51.6288632 C26.2357466,56.7753429 20.9869011,60.700702 14.9924168,62.9037929 Z M33.3733161,60.2081591 C31.5795402,63.9824915 29.0533293,67.410412 25.983986,70.2444622 C25.8169368,66.0703096 26.4548689,61.8587712 27.8571325,57.9194666 C29.4734743,56.4060841 30.9509546,54.7369274 32.2661331,52.931283 C32.7588244,53.1676146 33.2660546,53.3781322 33.785895,53.5622423 C33.5006058,55.3747111 33.3541782,57.2169996 33.3541782,59.0552824 C33.3540298,59.4399702 33.3607059,59.824213 33.3733161,60.2081591 Z M38.9481005,72.8248232 C36.958791,68.5226391 35.9159946,63.8095081 35.9159946,59.0552824 C35.9159946,57.4365669 36.0383886,55.8144392 36.2769455,54.2161969 C37.1449781,54.3675203 38.0371929,54.447336 38.9478038,54.447336 C39.8584147,54.447336 40.7510745,54.367817 41.6189588,54.2161969 C42.5623565,60.545818 41.62697,67.029433 38.9481005,72.8248232 Z M38.9475071,51.8853712 C31.8139432,51.8853712 26.0105418,46.0819698 26.0105418,38.9484059 C26.0105418,31.814842 31.8139432,26.0114406 38.9475071,26.0114406 C46.081071,26.011589 51.8844724,31.8149904 51.8844724,38.9484059 C51.8844724,46.0818214 46.081071,51.8853712 38.9475071,51.8853712 Z M51.9108798,70.245204 C48.8396078,67.4086317 46.3120617,63.9798211 44.5184341,60.2062305 C44.5911287,57.9934964 44.4555311,55.7687454 44.1088224,53.562539 C44.6291079,53.3782805 45.1369315,53.1676146 45.6302162,52.9309863 C46.712327,54.4172196 47.9117876,55.8242307 49.2102019,57.1224966 C49.4824356,57.3947304 49.7594168,57.6622168 50.0402553,57.9251041 C51.4401453,61.8604031 52.0773355,66.0695678 51.9108798,70.245204 Z M70.2443051,51.9122237 C66.0723779,52.0782344 61.8627681,51.4420826 57.9268757,50.0432311 C57.1923637,49.2596132 56.4206143,48.506705 55.6122209,47.7882155 C55.083034,47.3182228 54.2737504,47.3659935 53.803906,47.894587 C53.3339133,48.4233288 53.3815357,49.2329091 53.9102775,49.7029018 C57.9678221,53.3095916 61.0447315,57.8360904 62.9028941,62.9031995 C58.4522054,61.2660878 54.3816054,58.6707429 51.0217805,55.3107696 C49.8773601,54.1663492 48.8154258,52.9305412 47.8509615,51.6273796 C50.4595102,49.7902836 52.4776008,47.1695698 53.5614919,44.110463 C55.374109,44.3957522 57.2168425,44.5423282 59.055422,44.5423282 C59.441,44.5423282 59.8264297,44.5355038 60.2115626,44.5228935 C63.9836697,46.3163727 67.4101066,48.8421386 70.2443051,51.9122237 Z M59.0552737,41.9805118 C57.4361131,41.9805118 55.8138371,41.8581178 54.215298,41.6194126 C54.3667698,40.7513799 54.4464371,39.8590168 54.4464371,38.9484059 C54.4464371,38.0372016 54.3666215,37.144245 54.2151497,36.2757673 C60.545661,35.3320729 67.0294243,36.2677561 72.8248145,38.9479608 C68.5202567,40.9377154 63.8071257,41.9805118 59.0552737,41.9805118 Z" id="Shape"></path>
        </g>
    </g>
</svg>