<?xml version="1.0" encoding="UTF-8"?>
<svg width="76px" height="76px" viewBox="0 0 76 76" version="1.1" xmlns="http://www.w3.org/2000/svg" xmlns:xlink="http://www.w3.org/1999/xlink">
    <!-- Generator: Sketch 43.1 (39012) - http://www.bohemiancoding.com/sketch -->
    <title>icons</title>
    <desc>Created with Sketch.</desc>
    <defs></defs>
    <g id="Page-1" stroke="none" stroke-width="1" fill="none" fill-rule="evenodd">
        <g id="uv" fill-rule="nonzero" fill="#F2A87C">
            <path d="M73.625,35.625 L59.234875,35.625 C58.7765,31.509125 57.1425,27.7495 54.684375,24.673875 L61.054125,18.304125 C61.98275,17.3755 61.98275,15.8745 61.054125,14.945875 C60.1255,14.01725 58.6245,14.01725 57.695875,14.945875 L51.326125,21.315625 C48.2505,18.85275 44.4885,17.2235 40.375,16.765125 L40.375,2.375 C40.375,1.061625 39.313375,0 38,0 C36.686625,0 35.625,1.061625 35.625,2.375 L35.625,16.765125 C31.5115,17.2235 27.7495,18.855125 24.673875,21.315625 L18.304125,14.945875 C17.3755,14.01725 15.8745,14.01725 14.945875,14.945875 C14.01725,15.8745 14.01725,17.3755 14.945875,18.304125 L21.315625,24.673875 C18.855125,27.7495 17.2235,31.5115 16.765125,35.625 L2.375,35.625 C1.061625,35.625 0,36.686625 0,38 C0,39.313375 1.061625,40.375 2.375,40.375 L16.765125,40.375 C17.2235,44.4885 18.8575,48.2505 21.315625,51.321375 L14.945875,57.695875 C14.01725,58.6245 14.01725,60.1255 14.945875,61.054125 C15.409,61.51725 16.017,61.75 16.625,61.75 C17.233,61.75 17.841,61.51725 18.304125,61.054125 L24.673875,54.679625 C27.7495,57.1425 31.5115,58.7765 35.625,59.234875 L35.625,73.625 C35.625,74.938375 36.686625,76 38,76 C39.313375,76 40.375,74.938375 40.375,73.625 L40.375,59.234875 C44.4885,58.7765 48.2505,57.1425 51.326125,54.684375 L57.695875,61.054125 C58.159,61.51725 58.767,61.75 59.375,61.75 C59.983,61.75 60.591,61.51725 61.054125,61.054125 C61.98275,60.1255 61.98275,58.6245 61.054125,57.695875 L54.684375,51.326125 C57.1425,48.2505 58.7765,44.4885 59.234875,40.375 L73.625,40.375 C74.938375,40.375 76,39.313375 76,38 C76,36.686625 74.938375,35.625 73.625,35.625 Z M38,54.625 C28.834875,54.625 21.375,47.165125 21.375,38 C21.375,28.834875 28.834875,21.375 38,21.375 C47.165125,21.375 54.625,28.834875 54.625,38 C54.625,47.165125 47.165125,54.625 38,54.625 Z" id="Shape"></path>
        </g>
    </g>
</svg>