<?xml version="1.0" encoding="UTF-8"?>
<svg width="34px" height="76px" viewBox="0 0 34 76" version="1.1" xmlns="http://www.w3.org/2000/svg" xmlns:xlink="http://www.w3.org/1999/xlink">
    <!-- Generator: Sketch 43.1 (39012) - http://www.bohemiancoding.com/sketch -->
    <title>icons</title>
    <desc>Created with Sketch.</desc>
    <defs></defs>
    <g id="Page-1" stroke="none" stroke-width="1" fill="none" fill-rule="evenodd">
        <g id="weather" fill-rule="nonzero" fill="#F2A87C">
            <path d="M27.2980912,44.7304878 L27.2980912,10.554197 C27.2980912,4.73456467 22.6780267,0 16.9994073,0 C11.321677,0 6.70250153,4.73456467 6.70250153,10.554197 L6.70250153,44.730184 C2.48428484,48.0239659 0,53.1112079 0,58.5745177 C0,68.1830776 7.62562538,76 16.9994073,76 C26.3737819,76 34,68.1830776 34,58.5745177 C34,53.1118155 31.5157152,48.0245734 27.2980912,44.7304878 Z M16.8890876,71.4434448 C9.78203197,71.4434448 4,65.670593 4,58.5745177 C4,54.2324243 6.18697357,50.2095935 9.85018474,47.813453 C10.4936807,47.3924273 10.8816038,46.6758331 10.8816038,45.9079016 L10.8816038,10.554197 C10.8816038,7.24704923 13.5766806,4.55655524 16.8893918,4.55655524 C20.2033201,4.55655524 22.8990054,7.24704923 22.8990054,10.554197 L22.8990054,45.9079016 C22.8990054,46.6761368 23.2866242,47.3924273 23.9304245,47.813453 C27.5930271,50.2098973 29.7800007,54.2327281 29.7800007,58.5745177 C29.7793922,65.670593 23.9967517,71.4434448 16.8890876,71.4434448 Z" id="Shape"></path>
            <path d="M19.159152,51.1840319 L19.159152,21.1722072 C19.159152,19.9180558 18.2165905,18.9012908 17.0533399,18.9012908 C15.8900893,18.9012908 14.9475279,19.9180558 14.9475279,21.1722072 L14.9475279,51.1840319 C12.1105779,52.1478088 10.0536207,55.0058327 10.0536207,58.385259 C10.0536207,62.553753 13.187069,65.9340876 17.0533399,65.9340876 C20.9204531,65.9340876 24.0536207,62.553753 24.0536207,58.385259 C24.0533399,55.0055299 21.9963827,52.1472032 19.159152,51.1840319 Z" id="Shape"></path>
        </g>
    </g>
</svg>