<?xml version="1.0" encoding="UTF-8"?>
<svg width="18px" height="18px" viewBox="0 0 18 18" version="1.1" xmlns="http://www.w3.org/2000/svg" xmlns:xlink="http://www.w3.org/1999/xlink">
    <!-- Generator: Sketch 43.2 (39069) - http://www.bohemiancoding.com/sketch -->
    <title>whatsapp</title>
    <desc>Created with Sketch.</desc>
    <defs>
        <path d="M8.82811005,17.4786969 C8.82811005,17.4786969 8.82788652,17.4786969 8.82811005,17.4786969 L8.82811005,17.4786969 Z M8.82809984,17.4786969 L8.82809984,17.4786969 L8.82809984,17.4786969 L8.82809984,17.4786969 Z M2.85582848,12.8828119 L2.68315514,12.6086626 C1.95696449,11.4544289 1.57361363,10.12067 1.57421528,8.75102611 C1.57581968,4.75436033 4.82963914,1.50275917 8.83080726,1.50275917 C10.768519,1.50356107 12.5895107,2.2585492 13.9591653,3.62859404 C15.3287195,4.99863888 16.0823855,6.81995252 16.0817838,8.75683988 C16.0800792,12.7537061 12.8261594,16.0057083 8.82809984,16.0057083 L8.82529214,16.0057083 C7.52352369,16.0050066 6.24682397,15.6556792 5.13337174,14.9951147 L4.86834524,14.838143 L2.12291941,15.5577473 L2.85582848,12.8828119 Z M0.100776251,8.75042469 C0.100174601,10.2875653 0.501976031,11.788019 1.26566949,13.1105513 L0.0274753161,17.6296544 L4.65395756,16.4169823 C5.92865179,17.1119283 7.36378582,17.4780955 8.82438966,17.4786969 L8.82809984,17.4786969 C13.6379848,17.4786969 17.5534179,13.5659298 17.5553231,8.75744131 C17.5562256,6.42702189 16.6492394,4.23583223 15.0015226,2.58732788 C13.3537056,0.939024004 11.1625992,0.0307728831 8.82809984,0.0296702717 C4.01751292,0.0297705091 0.102681473,3.94193616 0.100776251,8.75042469 L0.100776251,8.75042469 Z" id="path-1"></path>
    </defs>
    <g id="Page-1" stroke="none" stroke-width="1" fill="none" fill-rule="evenodd">
        <g id="Whatsapp-Icon">
            <g id="icon">
                <g id="Clipped" transform="translate(0.167125, 0.220522)">
                    <mask id="mask-2" fill="white">
                        <use xlink:href="#path-1"></use>
                    </mask>
                    <g id="SVGID_20_"></g>
                    <rect id="Rectangle-path" fill="#FFFFFF" fill-rule="nonzero" mask="url(#mask-2)" x="0.0274753161" y="0.0297705091" width="17.5287503" height="17.5998839"></rect>
                </g>
                <path d="M6.81404552,5.32521235 C6.65069775,4.96215247 6.47872633,4.95493537 6.32330027,4.94862042 C6.19615173,4.9432076 6.05065289,4.94350831 5.90545487,4.94350831 C5.76005629,4.94350831 5.52380869,4.99803746 5.32406113,5.21625429 C5.12411303,5.43437088 4.5606685,5.96171986 4.5606685,7.03415985 C4.5606685,8.10670008 5.34211061,9.1430546 5.4511094,9.28859931 C5.56020847,9.43394355 6.95964464,11.7050224 9.17612051,12.5788921 C11.01817,13.3049116 11.3929975,13.1604695 11.7928937,13.1241836 C12.1926896,13.0877974 13.0830302,12.5969348 13.2648286,12.0879293 C13.4465267,11.579024 13.4465267,11.1426906 13.3920774,11.0515748 C13.3375279,10.9606595 13.1922296,10.9062305 12.9741317,10.7971723 C12.7559336,10.6882142 11.6839952,10.160765 11.4840471,10.0881931 C11.284099,10.0154207 11.1388007,9.97913479 10.9933018,10.1973516 C10.8479032,10.415368 10.4302584,10.9062305 10.3030096,11.0515748 C10.1757607,11.1972197 10.0486122,11.2153627 9.83051435,11.1064046 C9.61231622,10.9970456 8.90999098,10.767101 8.07690731,10.0245423 C7.42863024,9.44677394 6.99103068,8.73328409 6.86378186,8.51506726 C6.73653304,8.29705091 6.85014447,8.17897125 6.95954437,8.0703139 C7.05751292,7.97258243 7.17764222,7.81581113 7.28664101,7.68850963 C7.39543925,7.56120812 7.43183903,7.47039304 7.50453832,7.3250488 C7.5772376,7.17950409 7.54083782,7.05220259 7.48638857,6.94324453 C7.43173876,6.83418623 7.00787686,5.75623318 6.81404552,5.32521235" id="Shape" fill="#FFFFFF"></path>
            </g>
        </g>
    </g>
</svg>